<?xml version="1.0" standalone="no"?>
<svg version="1.1" id="Layer_1" xmlns:cc="http://creativecommons.org/ns#" xmlns:dc="http://purl.org/dc/elements/1.1/" xmlns:rdf="http://www.w3.org/1999/02/22-rdf-syntax-ns#" xmlns:svg="http://www.w3.org/2000/svg" xmlns="http://www.w3.org/2000/svg" xmlns:xlink="http://www.w3.org/1999/xlink" x="0px" y="0px" viewBox="0 0 595.2 595.2" enable-background="new 0 0 595.2 595.2" xml:space="preserve">
<path id="color_x5F_1" fill="#4e4a4a" d="M542.669,503.624c-0.007-0.651-0.535-1.178-1.188-1.178h-85.455l-1.543-57.333
	l-0.544-20.214h23.195c0.314,0,0.574-0.244,0.594-0.558l0.724-11.325c0.011-0.164-0.047-0.325-0.159-0.445
	c-0.113-0.12-0.271-0.188-0.435-0.188h-10.604h-0.429v-18.236h0.429c0.329,0,0.596-0.267,0.596-0.596s-0.267-0.596-0.596-0.596
	c-0.353,0-0.429-0.076-0.429-0.429v-3.621c0-0.001,0-0.001,0-0.002v-0.001v-0.001V388.9v-0.001c-0.004-0.326-0.269-0.59-0.596-0.59
	c-0.249,0-0.463,0.153-0.551,0.37h-10.731c-0.089-0.217-0.302-0.37-0.551-0.37c-0.329,0-0.596,0.267-0.596,0.596v3.621
	c0,0.353-0.076,0.429-0.429,0.429c-0.107,0-0.203,0.036-0.29,0.086l-0.533-19.821h9.137c0.329,0,0.596-0.267,0.596-0.596v-4.681
	h25.613c0.314,0,0.574-0.244,0.594-0.558l1.621-25.372l8.921-139.59c0.011-0.164-0.047-0.325-0.159-0.445
	c-0.113-0.12-0.271-0.188-0.435-0.188h-36.681h-22.83l0.953-14.812c0.011-0.164-0.047-0.325-0.159-0.445
	c-0.113-0.12-0.271-0.188-0.435-0.188h-10.141c-0.313,0-0.574,0.244-0.594,0.557l-0.958,14.888h-47.645
	c-0.314,0-0.574,0.244-0.594,0.557l-5.21,81.52l-14.571,2.376c-0.323,1.061-0.199,2.102,0.621,3.114l13.78-2.837l-1.191,18.631
	l-12.593,9.286c-0.002,0.001-0.003,0.002-0.005,0.004l-13.199,9.733c-4.065-5.609-13.755-19.077-19.243-27.531
	c-5.921-9.121-13.57-10.692-19.156-11.84c-1.298-0.267-2.522-0.518-3.602-0.834c-5.34-1.563-5.774-4.313-5.789-4.423
	c-0.019-0.163-0.104-0.311-0.234-0.41c-0.001-0.001-0.003-0.001-0.004-0.002c0.173-0.905,0.803-3.95,1.917-6.824
	c0.941-2.426,1.813-3.654,2.207-4.133c0.987,0.251,1.994,0.446,2.998,0.586c0.711,0.486,2.251,0.924,4.445,0.919
	c4.881-0.01,9.029-1.057,8.947-3.519c0,0-0.692-1.653-1.931-2.255c-0.219-0.568-0.519-1.153-0.83-1.751
	c-0.48-0.923-0.977-1.877-1.234-2.87c-0.639-2.459-0.551-4.102-0.432-4.895c1.115,0.273,3.382,0.562,4.802-1.074
	c0.689-0.793,0.969-1.542,0.856-2.292c-0.187-1.239-1.43-2.239-3.375-3.451c-2.685-1.673-3.114-2.164-2.511-4.582
	c0.288-1.152,0.695-1.957,1.055-2.666c0.501-0.99,0.934-1.844,0.769-3.099c-0.229-1.739-1.374-6.488-1.621-7.503
	c1.346-0.618,2.544-1.273,3.5-1.96c2.35-1.69,3.369-3.21,3.116-4.646c-0.261-1.481-1.85-2.26-2.606-2.551
	c-0.669-4.298-10.049-7.24-18.907-8.588c-13.684-2.083-30.574-1.381-33.998,3.384c-2.351,3.27-4.904,11.657-3.554,17.356
	c0.548,2.314,1.669,3.93,3.333,4.801c0.084,0.044,0.185,0.082,0.274,0.125c0.008,1.879,0.157,7.437,1.564,11.071
	c1.714,4.428,3.5,6.928,3.5,6.928s-8.213,0.785-14.641,6.356c-3.237,2.805-5.999,6.228-7.382,10.557
	c-0.056-0.017-0.112-0.035-0.174-0.035c-0.002,0-0.005,0-0.007,0c-0.378,0.005-9.304,0.193-13.285,6.976
	c-4.103,6.99-10.379,48.171-10.645,49.921c-0.634,4.185,4.603,8.392,16.475,13.224c-0.509,11.761-1.254,22.754-2.34,28.779
	c-3.132,17.367-1.209,24.003-1.126,24.276c0.052,0.171,0.177,0.31,0.342,0.377c0.008,0.003,0.048,0.02,0.108,0.044
	c-0.045,2.966-0.068,16.645,2.95,29.973c3.295,14.555,7.17,22.086,7.426,22.572l-0.146,28.09l-0.134,25.687H57.801h-0.928
	c-0.638,0-1.149,0.505-1.179,1.135c-0.001,0.019-0.011,0.036-0.011,0.055v0c0,0.657,0.533,1.19,1.19,1.19h484.608
	c0.657,0,1.19-0.533,1.19-1.19C542.672,503.632,542.669,503.628,542.669,503.624z M307.529,435.547
	c-0.056,0.021-5.698,2.167-11.69,2.31c-0.351,0.009-0.702,0.013-1.053,0.013c-5.621,0-11.105-1.008-11.164-1.019
	c-0.195-0.036-0.324-0.224-0.288-0.419c0.036-0.196,0.222-0.329,0.42-0.288c0.061,0.012,6.182,1.126,12.067,0.994
	c5.864-0.141,11.395-2.241,11.45-2.263c0.183-0.073,0.395,0.021,0.465,0.207C307.808,435.268,307.715,435.476,307.529,435.547z
	 M283.137,438.763c-0.187-0.067-0.283-0.274-0.215-0.461c0.068-0.188,0.275-0.284,0.461-0.215c0.031,0.011,3.185,1.153,7.968,2.419
	c4.754,1.258,10.775,1.273,10.835,1.273c0.199,0,0.359,0.161,0.359,0.359c0,0.199-0.161,0.359-0.359,0.359
	c-0.062,0-6.174-0.015-11.02-1.297C286.35,439.927,283.169,438.775,283.137,438.763z M284.337,460.917
	c-0.026,0.006-0.052,0.009-0.077,0.009c-0.166,0-0.314-0.115-0.351-0.284c-0.028-0.13-2.938-13.132-11.467-21.241
	c-8.712-8.285-9.372-15.5-9.396-15.803c-0.016-0.198,0.132-0.371,0.33-0.387c0.201-0.013,0.372,0.132,0.388,0.33
	c0.006,0.071,0.679,7.26,9.174,15.338c8.692,8.265,11.645,21.478,11.674,21.61C284.655,460.684,284.531,460.875,284.337,460.917z
	 M329.27,502.445c-0.241-1.772-0.741-5.436-1.402-10.262c-0.129-0.939-0.263-1.923-0.404-2.945c-0.208-1.519-0.428-3.12-0.658-4.793
	c-2.66-19.357-6.61-47.813-8.234-58.103c-2.238-14.173-4.123-25.854-4.555-28.534c0.037-0.018,0.061-0.03,0.066-0.032
	c0.261-0.13,0.389-0.431,0.302-0.709c-0.037-0.117-3.321-10.908-3.888-29.269c0.935,0.106,2.721,0.268,5.025,0.268
	c4.386,0,10.582-0.589,16.036-3.272c8.168-4.019,11.4-9.849,12.239-11.646c1.172,0.41,2.347,0.58,3.562,0.462
	c3.861-0.376,7.721-3.643,12.513-10.592c3.749-5.435,7.794-11.096,11.531-16.241l-2.59,40.531c-0.011,0.164,0.047,0.325,0.159,0.445
	c0.113,0.12,0.271,0.188,0.435,0.188h2.424l1.042,18.74h-3.927c-0.329,0-0.596,0.267-0.596,0.596v24.9
	c0,0.072,0.018,0.139,0.041,0.203h-3.36c-0.314,0-0.574,0.244-0.594,0.558l-0.724,11.325c-0.011,0.164,0.047,0.325,0.159,0.445
	c0.113,0.12,0.271,0.188,0.435,0.188h48.924l-1.089,16.924l-0.406,6.307l-0.026,0.408l-3.47,53.909H329.27z M310.412,362.391
	c0-18.527,3.354-31.441,4.347-34.854c5.576,5.181,12.047,11.249,16.926,15.998l0.769,0.749c3.914,3.816,7.103,6.912,10.241,8.401
	c-0.804,1.676-3.94,7.241-11.662,11.041c-8.103,3.987-18.241,3.133-20.569,2.868C310.431,365.232,310.412,363.832,310.412,362.391z
	 M436.421,394.146h0.43v18.236h-0.43h-11.052l2.521-39.163h12.066l0.416,15.46h-2.376c-0.089-0.217-0.302-0.37-0.551-0.37
	c-0.329,0-0.596,0.267-0.596,0.596v3.621c0,0.353-0.076,0.429-0.43,0.429c-0.329,0-0.596,0.267-0.596,0.596
	S436.092,394.146,436.421,394.146z M438.042,394.146h10.641v18.236h-7.672h-2.969V394.146z M422.848,394.146v18.236h-8.813h-1.828
	v-18.236H422.848z M411.016,412.382h-0.43h-0.029V394.14c0.01,0.001,0.019,0.006,0.029,0.006h0.43V412.382z M409.365,412.423
	c-0.133-0.027-0.276-0.041-0.429-0.041h-9.783c-0.153,0-0.297,0.014-0.43,0.041v-18.277h0.43h9.783h0.429V412.423z M404.535,373.219
	h12.021l-0.995,15.46h-3.399c-0.089-0.217-0.302-0.37-0.551-0.37c-0.329,0-0.596,0.267-0.596,0.596v3.621
	c0,0.353-0.076,0.429-0.43,0.429c-0.01,0-0.019,0.005-0.029,0.006v-0.435v-2.88c0-0.578-0.389-0.967-0.966-0.967h-11.093
	c-0.577,0-0.966,0.389-0.966,0.967v2.88v0.654v19.202h-10.483c0.023-0.064,0.041-0.131,0.041-0.203v-24.9
	c0-0.329-0.267-0.596-0.596-0.596h-3.334l3.519-18.74h17.26v4.681C403.939,372.952,404.206,373.219,404.535,373.219z
	 M380.228,386.683h-1.067l0.446-18.74h3.426L380.228,386.683z M375.922,386.683l-0.345-18.74h0.44l0.249,18.74H375.922z
	 M465.633,394.146v18.236h-10.642v-18.236H465.633z M453.371,394.146h0.429v18.236h-0.198l-0.492-18.303
	C453.189,394.118,453.276,394.146,453.371,394.146z M380.506,202.981h117.295l-10.466,163.771h-25.65h-9.311h-12.591h-11.477
	h-11.334h-12.438h-17.632l0.569-3.028c0.043-0.228-0.05-0.458-0.236-0.593c-0.978-0.704-2.019-0.855-3.104-0.457
	c-0.203,0.076-0.35,0.256-0.382,0.471l-0.54,3.607h-3.576l0.085-3.584c0.006-0.231-0.123-0.444-0.329-0.548
	c-1.076-0.534-2.131-0.52-3.135,0.05c-0.188,0.107-0.304,0.309-0.302,0.525l0.047,3.557h-0.779
	c-0.004-0.002-0.005-0.006-0.009-0.008c-0.966-0.431-1.892-0.411-2.764,0.008h-2.408l2.669-41.77
	c2.494-3.42,4.809-6.556,6.758-9.177c3.221-4.335,5.438-7.262,5.771-7.701c0.669-0.547,6.333-5.211,8.608-8.078
	c0.136-0.171,0.264-0.338,0.374-0.496c1.944-2.777,4.345-10.087,3.935-11.314c-0.189-0.57-0.583-0.937-0.938-1.163
	c0.95-1.613,1.342-2.912,0.554-3.678c-0.169-0.164-0.34-0.289-0.514-0.378c0.005-0.364-0.176-0.731-0.514-1.023
	c-0.045-0.039-0.106-0.071-0.157-0.108l12.896-2.655v0c0,0,1.646,1.204,3.628,0.008c1.982-1.196,2.178-2.661,2.196-3.857
	c-0.911,1.732-1.375,0.75-3.553,1.214c-0.883,0.188-1.951,0.833-2.472,1.562l-16.672,2.719c-1.938-0.096-4.289,0.521-5.477,0.89
	c-0.007,0.002-0.015,0.005-0.022,0.007l-11.761,1.918L380.506,202.981z M375.183,286.271l4.429-0.912
	c-1.938,1.362-3.441,2.936-3.945,4.585c-0.738,2.416-1.097,12.089-1.159,13.935l-0.472,0.348L375.183,286.271z M375.447,304.667
	c0.146-0.108,0.235-0.278,0.241-0.461c0.004-0.114,0.363-11.447,1.117-13.914c0.908-2.975,6.06-5.979,10.679-7.41
	c1.999-0.619,3.788-0.909,5.044-0.857c-1.154,0.579-2.602,1.488-4.127,2.445c-2.529,1.588-5.667,3.557-6.974,3.557
	c-0.023,0-0.047,0-0.07-0.002c-0.29-0.013-0.609,0.23-0.63,0.559c-0.02,0.328,0.231,0.61,0.56,0.629
	c1.608,0.099,4.606-1.763,7.747-3.735c1.641-1.029,3.189-2.001,4.324-2.533c1.313-0.612,2.146-0.323,2.369-0.221
	c0.143,0.066,0.23,0.136,0.281,0.18c-1.061,0.318-2.278,1.506-3.825,3.015c-0.384,0.375-0.796,0.776-1.239,1.199
	c-2.997,2.862-4.775,3.425-4.793,3.431c-0.313,0.093-0.494,0.421-0.403,0.736c0.091,0.315,0.422,0.499,0.737,0.407
	c0.081-0.023,2.034-0.612,5.281-3.712c0.446-0.426,0.861-0.831,1.248-1.208c2.37-2.312,3.32-3.132,3.926-2.546
	c0.609,0.592-2.073,4.239-3.362,5.992c-1.416,1.927-2.755,3.746-3.082,4.92c-0.089,0.317,0.097,0.645,0.413,0.733
	c0.317,0.09,0.646-0.097,0.733-0.413c0.27-0.965,1.604-2.78,2.895-4.535c0.742-1.008,1.453-1.975,2.048-2.87
	c0.172,0.108,0.354,0.273,0.434,0.507c0.143,0.897-1.867,7.561-3.772,10.284c-1.929,2.756-8.747,8.323-8.815,8.378
	c-0.036,0.03-0.069,0.064-0.098,0.102c-0.088,0.115-5.581,7.352-12.447,16.763c-1.06-1.243-3.626-4.173-5.614-5.82
	c-1.758-1.456-3.659-2.729-4.68-3.386L375.447,304.667z M315.185,235.843c-0.365,0.35-1.68,1.432-4.591,2.056
	c-3.499,0.75-2.928,4.748-2.928,4.749c0,0,1.43-2.267,4.606-2.536c1.308-0.111,2.192-0.427,2.788-0.831
	c-0.078,0.163-0.159,0.328-0.252,0.511c-0.368,0.728-0.826,1.634-1.146,2.915c-0.789,3.155,0.206,4.119,3.036,5.882
	c1.395,0.869,2.702,1.787,2.826,2.617c0.059,0.383-0.131,0.819-0.577,1.334c-1.354,1.557-4.11,0.555-4.138,0.545
	c-0.147-0.054-0.313-0.05-0.459,0.018c-0.145,0.067-0.257,0.188-0.311,0.338c-0.031,0.086-0.75,2.167,0.283,6.146
	c0.292,1.124,0.844,2.185,1.33,3.12c0.189,0.364,0.368,0.712,0.525,1.044c-0.092,0.021-0.183,0.039-0.278,0.073
	c-2.257,0.821-4.062-1.518-4.472-0.574c-0.41,0.944-0.246,4.185-3.857,4.226c-0.483,0.005-0.864,0.051-1.162,0.123
	c-1.07-0.142-2.146-0.342-3.195-0.614c-0.102-0.063-0.219-0.097-0.335-0.089c-3.868-1.059-7.291-2.998-8.427-5.752
	c-0.125-0.304-0.474-0.449-0.777-0.323c-0.304,0.125-0.449,0.473-0.323,0.777c1.211,2.936,4.595,5.031,8.495,6.232
	c-0.518,0.717-1.284,1.988-2.083,4.049c-1.259,3.247-1.902,6.61-2.014,7.226c-0.719,0.055-1.905,0.089-3.36-0.085
	c-0.68-0.081-1.245-0.18-1.721-0.28c-1.192-0.25-1.77-0.507-1.778-0.511c-0.047-0.022-0.097-0.027-0.146-0.036
	c0.613-3.567,0.4-7.294-1.151-9.048c-3.285-3.714-4.285-10.214-4.285-10.214s1.196-1.673,0.836-4.007
	c0.333,0.382,0.677,0.733,1.041,1.003c1.062,0.789,2.108,1.214,3.039,1.441c0.704,0.172,1.343,0.233,1.862,0.233
	c0.822,0,1.353-0.134,1.405-0.148c0.317-0.084,0.505-0.408,0.422-0.726c-0.083-0.317-0.407-0.508-0.725-0.426
	c-0.107,0.027-2.636,0.644-5.293-1.33c-1.843-1.369-3.383-4.789-3.364-7.469c0.006-0.9,0.2-2.107,1.088-2.747
	c2.442-1.756,6.447,1.696,6.487,1.73c0.195,0.171,0.467,0.186,0.68,0.066c0.934,1.128,1.664,2.5,1.986,3.988
	c0.929,4.285,1.143,8.142,1.5,8.284c0.357,0.143,5.214-1,6.142-1.857c0.928-0.857-2.642-3.5-2.857-9.642
	c-0.214-6.142,4.357-10.07,4.357-10.07l-0.641-3.603c3.478-0.901,7.385-2.069,10.638-3.439
	C314.152,231.213,314.796,233.908,315.185,235.843z M271.344,280.925c0.133,0.148,0.121,0.375-0.027,0.508
	c-0.069,0.062-0.155,0.092-0.241,0.092c-0.099,0-0.196-0.04-0.268-0.119c-0.215-0.239-5.251-5.925-3.797-12.178
	c1.455-6.254,8.216-8.995,8.503-9.108c0.186-0.072,0.394,0.017,0.467,0.202c0.073,0.185-0.017,0.394-0.202,0.467
	c-0.067,0.026-6.699,2.721-8.067,8.603C266.344,275.275,271.293,280.869,271.344,280.925z M272.524,256.663
	c-0.304-0.127-0.446-0.476-0.32-0.779s0.475-0.447,0.779-0.32c0.025,0.01,2.518,1.048,5.283,1.795c2.692,0.728,4.88,0.555,4.9,0.553
	c0.326-0.035,0.616,0.215,0.644,0.542c0.028,0.328-0.214,0.616-0.542,0.644c-0.032,0.002-0.31,0.025-0.773,0.025
	c-0.928,0-2.601-0.091-4.54-0.615C275.111,257.74,272.628,256.707,272.524,256.663z M320.463,223.331
	c0.157,0.902-0.78,2.134-2.64,3.471c-4.351,3.128-14.304,5.659-19.865,6.893c0.355-0.23,0.7-0.468,1.035-0.713l0.108-0.078
	c0.001-0.001,0.003-0.003,0.005-0.004l7.597-4.395c0.15-0.064,0.302-0.126,0.454-0.188c1.706-0.691,3.249-1.163,4.61-1.578
	c2.361-0.721,4.226-1.291,5.659-2.583v0c0.823-0.742,1.34-1.52,1.542-2.318C319.592,222.132,320.343,222.642,320.463,223.331z
	 M312.066,225.401l5.44-3.147c-0.207,0.337-0.499,0.677-0.877,1.017C315.516,224.276,313.982,224.81,312.066,225.401z
	 M263.728,232.449c-1.273-5.377,1.141-13.297,3.362-16.387c1.956-2.721,9.668-3.972,18.426-3.972c4.751,0,9.813,0.368,14.425,1.07
	c10.153,1.545,17.319,4.588,17.896,7.526l-11.667,6.75c-2.683,1.139-5.214,2.604-7.72,4.466l-4.595,2.659
	c-9.26,4.16-22.555,4.447-27.402,1.909C265.11,235.766,264.192,234.413,263.728,232.449z M254.061,272.271
	c3.029-11.129,16.82-13.437,16.959-13.458c0.198-0.03,0.38,0.103,0.412,0.299c0.031,0.196-0.103,0.38-0.299,0.412
	c-0.135,0.021-13.472,2.261-16.378,12.937c-1.961,7.203,0.486,14.141,3.78,17.822c1.585,1.772,3.271,2.664,4.628,2.454
	c1.606-0.251,2.707-0.832,3.271-1.727c0.681-1.082,0.434-2.406,0.226-3.099c-0.057-0.19,0.051-0.391,0.241-0.448
	c0.191-0.058,0.391,0.051,0.448,0.241c0.243,0.811,0.527,2.367-0.306,3.689c-0.68,1.079-1.947,1.77-3.768,2.054
	c-0.165,0.026-0.333,0.039-0.504,0.039c-1.492,0-3.201-0.968-4.772-2.724C254.574,286.937,252.029,279.735,254.061,272.271z
	 M240.412,371.638c1.104-6.125,1.857-17.326,2.37-29.262c0.013-0.063,0.016-0.128,0.008-0.19c0.269-6.299,0.471-12.8,0.622-18.856
	c0.01-0.058,0.011-0.115,0.004-0.172c0.365-14.708,0.432-26.777,0.433-27.041c0.001-0.329-0.264-0.597-0.592-0.598
	c-0.001,0-0.002,0-0.003,0c-0.067,0-0.128,0.018-0.188,0.038c-0.234,0.079-0.406,0.293-0.408,0.555
	c-0.001,0.264-0.068,12.321-0.432,27.004c-1.645,3.896-2.611,4.916-6.295,6.723c-0.295,0.145-0.417,0.501-0.272,0.796
	c0.145,0.296,0.501,0.421,0.797,0.272c3.119-1.529,4.496-2.686,5.694-4.842c-0.125,4.614-0.28,9.422-0.471,14.153
	c-0.016,0.388-0.03,0.779-0.046,1.167c-10.706-4.403-15.869-8.365-15.352-11.781c0.065-0.426,6.507-42.702,10.494-49.496
	c3.375-5.751,10.973-6.327,12.118-6.382c-1.019,4.033-0.87,8.812,1.133,14.563c2.917,8.374,8.374,9.186,13.475,7.458
	c2.643-0.895,5.19-2.47,7.237-4.03c5.999-4.571,11.713-3.999,15.569-5.142c1.835-0.544,3.41-3.677,4.205-7.211
	c0.26,0.106,0.953,0.358,2.138,0.591c0.46,0.09,0.987,0.178,1.597,0.251c1.784,0.213,3.189,0.137,3.916,0.064
	c0.393,1.099,1.767,3.463,6.486,4.844c1.125,0.33,2.374,0.586,3.695,0.857c5.68,1.167,12.748,2.619,18.398,11.322
	c5.662,8.723,15.777,22.758,19.62,28.054c0.004,0.006,0.008,0.012,0.012,0.018c0.003,0.003,0.005,0.006,0.008,0.009
	c0.933,1.286,1.49,2.049,1.518,2.087c0.194,0.266,0.566,0.321,0.832,0.129c0.266-0.194,0.323-0.566,0.129-0.832
	c-0.023-0.032-0.451-0.617-1.178-1.618l12.88-9.497c0.818,0.516,3.001,1.932,4.948,3.544c2.018,1.673,4.763,4.846,5.653,5.894
	c-3.941,5.413-8.275,11.465-12.275,17.264c-4.161,6.035-7.632,9.223-10.84,9.946c-0.271,0.061-0.54,0.111-0.808,0.137
	c-4.294,0.391-8.354-3.528-13.959-8.994l-0.77-0.75c-5.084-4.948-11.894-11.328-17.622-16.645c-0.014-0.014-0.028-0.027-0.043-0.04
	c-6.19-5.745-11.107-10.238-11.202-10.324c-0.243-0.222-0.619-0.206-0.841,0.038c-0.222,0.242-0.205,0.619,0.038,0.841
	c0.093,0.085,4.875,4.454,10.941,10.083c-0.594,1.944-3.297,11.428-4.239,25.795c-0.203,3.103-0.326,6.429-0.326,9.961
	c0,19.452,3.164,31.945,3.884,34.531c-2.562,1.177-15.862,6.868-33.284,6.868c-18.164,0-38.063-7.676-40.633-8.698
	C238.877,393.701,237.682,386.776,240.412,371.638z M279.327,502.445l1.498-10.156l4.385-29.728l8.203,32.565l0.07,0.277
	l1.117,4.436l0.656,2.605H279.327z M419.571,502.445l3.669-56.993l1.323-20.554h16.785l0.271,10.065l0.101,3.758l0.024,0.876
	l1.691,62.847H419.571z M307.667,242.648L307.667,242.648L307.667,242.648L307.667,242.648z M308.896,246.831
	c-0.086-0.317,0.102-0.645,0.419-0.73c0.99-0.268,1.92-0.394,3.03-0.232c-0.14-0.332-0.233-0.912-0.233-1.576
	c0-1.033,0.224-1.871,0.5-1.871c0.276,0,0.5,0.838,0.5,1.871c0,0.728-0.112,1.353-0.275,1.662c0.07,0.015,0.132,0.018,0.204,0.035
	c0.318,0.079,0.514,0.401,0.436,0.72c-0.078,0.319-0.399,0.515-0.721,0.436c-1.049-0.259-1.897-0.23-3.131,0.104
	c-0.052,0.014-0.104,0.021-0.155,0.021C309.207,247.271,308.967,247.096,308.896,246.831z M328.258,353.422
	c3.225,0.45,4.987,2.7,3,4.013c-1.987,1.312-6.375,0.488-6.075-1.65C325.183,355.785,325.032,352.972,328.258,353.422z
	 M320.521,359.309c0.751-1.288,0.871-2.386,0.355-3.262c-0.648-1.102-2.264-1.658-4.633-1.608c-3.273,0.068-4.313,2.252-4.406,3.397
	c-0.003,0.04-0.002,0.08,0.003,0.12c0.19,1.56,1.518,2.777,3.464,3.18c0.407,0.084,0.838,0.129,1.273,0.129
	C318.114,361.265,319.708,360.703,320.521,359.309z M313.031,357.876c0.05-0.354,0.442-2.189,3.238-2.248
	c1.851-0.022,3.176,0.335,3.581,1.022c0.35,0.595-0.002,1.447-0.358,2.059c-0.741,1.271-2.565,1.55-3.946,1.26
	C314.444,359.742,313.217,359.074,313.031,357.876z M320.175,350.297c0.407,0.084,0.838,0.129,1.273,0.129
	c1.536,0,3.13-0.562,3.943-1.956c0.936-1.604,0.71-2.659,0.355-3.262c-0.649-1.103-2.248-1.678-4.633-1.607
	c-3.273,0.067-4.313,2.251-4.406,3.396c-0.003,0.04-0.002,0.08,0.003,0.12C316.901,348.677,318.229,349.895,320.175,350.297z
	 M321.14,344.79c1.863-0.019,3.176,0.333,3.581,1.021c0.35,0.595-0.002,1.447-0.358,2.059c-0.741,1.271-2.565,1.549-3.946,1.26
	c-1.102-0.227-2.329-0.895-2.515-2.093C317.951,346.684,318.344,344.848,321.14,344.79z"></path>
<path id="color_x5F_w" fill="#f5a623" d="M380.506,202.981l-5.157,80.69l11.761-1.918c0.007-0.002,0.015-0.005,0.022-0.007
	c1.188-0.368,3.54-0.985,5.477-0.89l16.672-2.719c0.52-0.729,1.589-1.374,2.472-1.562c2.178-0.464,2.642,0.518,3.553-1.214
	c-0.018,1.196-0.214,2.661-2.196,3.857c-1.982,1.196-3.628-0.008-3.628-0.008v0l-12.896,2.655c0.051,0.037,0.113,0.069,0.157,0.108
	c0.338,0.292,0.519,0.659,0.514,1.023c0.174,0.089,0.345,0.214,0.514,0.378c0.788,0.766,0.396,2.065-0.554,3.678
	c0.355,0.226,0.749,0.593,0.938,1.163c0.41,1.227-1.99,8.538-3.935,11.314c-0.11,0.157-0.238,0.324-0.374,0.496
	c4.718-0.415,9.81-0.735,13.384-0.61c8.55,0.3,14.4-1.05,10.35-3.75s2.55-2.7,13.8-1.5c11.25,1.2,19.35,3.15,22.05-0.9
	c2.7-4.05,4.2-3.3,11.85-3.3c7.65,0,20.7-0.6,20.7-0.6l-0.6,9.15c0,0-10.65-1.5-18.45-0.9c-7.8,0.6-4.05,4.95-5.55,8.4
	c-1.5,3.45-3.9,7.5-20.25,4.65c-16.35-2.85-27.6,7.05-15.45,7.35c12.15,0.3,6.15,7.65-7.35,5.55s-18-2.7-26.25,2.4
	c-8.25,5.1-15.3,9.6-15.3,9.6l2.687-19.762c-1.948,2.622-4.263,5.757-6.758,9.177l-2.669,41.77h2.408
	c0.873-0.418,1.798-0.439,2.764-0.008c0.004,0.002,0.005,0.006,0.009,0.008h0.779l-0.047-3.557
	c-0.002-0.217,0.113-0.418,0.302-0.525c1.004-0.569,2.059-0.584,3.135-0.05c0.206,0.104,0.335,0.316,0.329,0.548l-0.085,3.584h3.576
	l0.54-3.607c0.032-0.215,0.179-0.395,0.382-0.471c1.085-0.398,2.126-0.247,3.104,0.457c0.187,0.135,0.279,0.365,0.236,0.593
	l-0.569,3.028h17.632h12.438h11.334h11.477h12.591h9.311h25.65l10.466-163.771H380.506z M485.345,317.002l-2.4,45.3l-73.95,0.45
	c0,0,3.15-1.8,5.1-2.4c1.95-0.6-1.8-0.6-1.35-2.1c0.45-1.5,4.963,0.47,5.25-1.05c0.287-1.52-3.064-3.808,0.418-3.554
	c3.482,0.254,4.382,0.929,4.382,0.929s-1.425-2.55-3.6-3.45c-2.175-0.9,1.875-0.525,3.6,0.075c1.725,0.6,1.875,0.525,1.875,0.525
	s-0.9-4.125,0.375-5.925c1.275-1.8,2.1-2.175,2.1-2.175s0.075,3.825,0.15,3.375c0.075-0.45,1.789-1.591,1.923-3.672
	c0.134-2.082-1.923-4.353-1.923-4.353s3.6-0.525,7.125,1.65c3.525,2.175,4.2,3.15,4.2,3.15s-1.275-4.125-2.85-5.25
	c-1.575-1.125-1.95-1.275-1.95-1.275s4.05,0,6.975,1.35c2.925,1.35,3.525,1.65,3.525,1.65s-0.826-2.925,2.924-5.625
	c3.75-2.7,6-2.85,6-2.85l-2.318,3.302c0,0,5.168-2.701,5.318-5.102c0.15-2.4,0-3.45,0-3.45l3,6.9c0,0,1.5-4.65,4.65-7.35
	c3.15-2.7,5.55-3.45,5.55-3.45s-0.637,3.263-0.675,5.588c-0.037,2.325,1.2,4.875,1.2,4.875s1.162-5.1,4.612-6.525
	c3.45-1.425,5.85-1.5,7.35-4.05C483.431,319.965,485.344,317.003,485.345,317.002L485.345,317.002L485.345,317.002L485.345,317.002z
	 M471.846,274.627c-10.65-1.05-9.45,1.2-3.6,2.1c5.85,0.9,10.95,3.45,0.9,2.4c-10.05-1.05-13.05-2.55-22.5-1.2
	c-9.45,1.35-11.625-1.2-11.625-1.2l4.5-0.75c0,0-4.275-1.05-9.675-1.125c-5.4-0.075-13.949-0.825-13.949-0.825h0
	c0,0,4.8-2.7,7.875-6.9c3.075-4.2,14.773-15.3,18.373-16.2c3.6-0.9,5.1,3,10.95,3.15c5.85,0.15,9.15,1.05,14.55-4.5
	c5.4-5.55,9.6-6.75,14.55-7.8c4.95-1.05,10.5-4.8,10.5-4.8l-3.749,37.651C488.946,274.627,482.496,275.677,471.846,274.627z
	 M375.183,286.271l4.429-0.912c-1.938,1.362-3.441,2.936-3.945,4.585c-0.738,2.416-1.097,12.089-1.159,13.935l-0.472,0.348
	L375.183,286.271z M71.867,304.175c0,0-3-14.4,10.2-20.4c13.2-6,36.6,6.9,30.299,24.3S75.467,323.975,71.867,304.175z
	 M108.966,237.306c0,0-4.339-20.826,14.752-29.503c19.091-8.677,52.933,9.979,43.821,35.144
	C158.427,268.111,114.173,265.941,108.966,237.306z M225.32,172.822c-7.194,19.867-42.133,18.155-46.243-4.453
	c0,0-3.426-16.442,11.647-23.293S232.514,152.954,225.32,172.822z M294.78,161.649c0,0-2.434-11.681,8.275-16.549
	c10.708-4.867,29.69,5.597,24.579,19.712C322.523,178.928,297.701,177.711,294.78,161.649z M287.896,254.973
	c2.658,1.974,5.186,1.357,5.293,1.33c0.317-0.082,0.642,0.109,0.725,0.426c0.083,0.317-0.105,0.642-0.422,0.726
	c-0.052,0.014-0.583,0.148-1.405,0.148c-0.519,0-1.158-0.061-1.862-0.233c-0.161,1.608-0.436,6.138,1.145,9.118
	c1.23,2.319,1.356,7.652,1.3,12.253c0.476,0.1,1.041,0.199,1.721,0.28c1.456,0.174,2.641,0.14,3.36,0.085
	c0.112-0.616,0.755-3.979,2.014-7.226c0.799-2.061,1.565-3.332,2.083-4.049c-3.9-1.202-7.284-3.296-8.495-6.232
	c-0.125-0.304,0.02-0.652,0.323-0.777c0.303-0.126,0.652,0.02,0.777,0.323c1.136,2.754,4.559,4.694,8.427,5.752
	c0.116-0.008,0.233,0.025,0.335,0.089c1.049,0.272,2.125,0.472,3.195,0.614c0.299-0.071,0.68-0.117,1.162-0.123
	c3.611-0.041,3.447-3.282,3.857-4.226c0.41-0.944,2.216,1.395,4.472,0.574c0.095-0.035,0.186-0.052,0.278-0.073
	c-0.157-0.332-0.336-0.68-0.525-1.044c-0.486-0.936-1.038-1.997-1.33-3.12c-1.033-3.979-0.314-6.06-0.283-6.146
	c0.054-0.15,0.166-0.271,0.311-0.338c0.146-0.068,0.312-0.072,0.459-0.018c0.027,0.01,2.783,1.011,4.138-0.545
	c0.446-0.515,0.636-0.951,0.577-1.334c-0.124-0.831-1.432-1.749-2.826-2.617c-2.83-1.763-3.825-2.727-3.036-5.882
	c0.32-1.281,0.778-2.187,1.146-2.915c0.093-0.184,0.174-0.348,0.252-0.511c-0.596,0.404-1.48,0.721-2.788,0.831
	c-3.177,0.269-4.606,2.535-4.606,2.536v0h0l0,0c0-0.001-0.571-4,2.928-4.749c2.91-0.624,4.225-1.705,4.591-2.056
	c-0.39-1.935-1.033-4.63-1.274-5.628c-3.252,1.37-7.159,2.538-10.638,3.439l0.641,3.603c0,0-4.571,3.928-4.357,10.07
	c0.214,6.142,3.785,8.785,2.857,9.642c-0.928,0.857-5.785,2-6.142,1.857c-0.357-0.143-0.571-3.999-1.5-8.284
	c-0.322-1.488-1.053-2.86-1.986-3.988c-0.214,0.12-0.485,0.105-0.68-0.066c-0.04-0.034-4.045-3.487-6.487-1.73
	c-0.888,0.64-1.082,1.847-1.088,2.747C284.512,250.184,286.053,253.605,287.896,254.973z M309.314,246.1
	c0.99-0.268,1.92-0.394,3.03-0.232c-0.14-0.332-0.233-0.912-0.233-1.576c0-1.033,0.224-1.871,0.5-1.871c0.276,0,0.5,0.838,0.5,1.871
	c0,0.728-0.112,1.353-0.275,1.662c0.07,0.015,0.132,0.018,0.204,0.035c0.318,0.079,0.514,0.401,0.436,0.72
	c-0.078,0.319-0.399,0.515-0.721,0.436c-1.049-0.259-1.897-0.23-3.131,0.104c-0.052,0.014-0.104,0.021-0.155,0.021
	c-0.263,0-0.503-0.174-0.574-0.439C308.81,246.513,308.997,246.186,309.314,246.1z M331.685,343.535
	c-4.879-4.749-11.35-10.817-16.926-15.998c-0.992,3.412-4.347,16.326-4.347,34.854c0,1.441,0.018,2.841,0.051,4.203
	c2.328,0.264,12.466,1.119,20.569-2.868c7.722-3.8,10.859-9.364,11.662-11.041c-3.138-1.489-6.328-4.585-10.241-8.401
	L331.685,343.535z M320.521,359.309c-0.813,1.395-2.407,1.956-3.943,1.956c-0.436,0-0.866-0.045-1.273-0.129
	c-1.946-0.402-3.273-1.62-3.464-3.18c-0.005-0.04-0.006-0.08-0.003-0.12c0.093-1.146,1.133-3.329,4.406-3.397
	c2.369-0.05,3.984,0.507,4.633,1.608C321.393,356.923,321.272,358.021,320.521,359.309z M321.448,350.426
	c-0.436,0-0.866-0.045-1.273-0.129c-1.946-0.402-3.273-1.62-3.464-3.18c-0.005-0.04-0.006-0.08-0.003-0.12
	c0.093-1.146,1.133-3.329,4.406-3.396c2.385-0.07,3.983,0.505,4.633,1.607c0.354,0.603,0.58,1.657-0.355,3.262
	C324.578,349.864,322.984,350.426,321.448,350.426z M331.258,357.435c-1.987,1.312-6.375,0.488-6.075-1.65
	c0,0-0.15-2.813,3.075-2.363C331.483,353.872,333.245,356.122,331.258,357.435z M371.165,325.079
	c-3.941,5.413-8.275,11.465-12.275,17.264c-4.161,6.035-7.632,9.223-10.84,9.946c0.226-1.461,0.625-6.235-2.752-10.987
	c-4.05-5.7-44.026-34.95-46.276-35.4c-2.25-0.45,2.25,11.25,4.5,18.15c2.25,6.9,3.376,15.299,3.751,20.624
	c0.263,3.728,1.534,6.453,2.273,7.755c-0.203,3.103-0.326,6.429-0.326,9.961c0,19.452,3.164,31.945,3.884,34.531
	c-2.562,1.177-15.862,6.868-33.284,6.868c-18.164,0-38.063-7.676-40.633-8.698c-0.311-1.391-1.506-8.316,1.224-23.454
	c1.104-6.125,1.857-17.326,2.37-29.262c0.013-0.063,0.016-0.128,0.008-0.19c0.269-6.299,0.471-12.8,0.622-18.856
	c0.01-0.058,0.011-0.115,0.004-0.172c0.365-14.708,0.432-26.777,0.433-27.041c0.001-0.329-0.264-0.597-0.592-0.598
	c-0.001,0-0.002,0-0.003,0c-0.067,0-0.128,0.018-0.188,0.038l0.078-4.391c0,0-3.075,2.776-4.725,11.926
	c-1.65,9.15-9.113,26.7-6.375,30c2.278,2.745,7.83,6.08,9.636,7.125c-0.016,0.388-0.03,0.779-0.046,1.167
	c-10.706-4.403-15.869-8.365-15.352-11.781c0.065-0.426,6.507-42.702,10.494-49.496c3.375-5.751,10.973-6.327,12.118-6.382
	c-1.019,4.033-0.87,8.812,1.133,14.563c2.917,8.374,8.374,9.186,13.475,7.458c0,0-0.002,0.002-0.002,0.002s1.47,0.966,7.245-0.534
	c5.775-1.5,4.95-3.675,11.325-4.275c6.375-0.6,10.575-1.725,10.5-5.625c-0.023-1.22,0.041-3.159,0.081-5.36
	c0.46,0.09,0.987,0.178,1.597,0.251c1.784,0.213,3.189,0.137,3.916,0.064c0.393,1.099,1.767,3.463,6.486,4.844
	c1.125,0.33,2.374,0.586,3.695,0.857c5.68,1.167,12.748,2.619,18.398,11.322c5.662,8.723,15.777,22.758,19.62,28.054
	c0.004,0.006,0.008,0.012,0.012,0.018c0.003,0.003,0.005,0.006,0.008,0.009c0.933,1.286,1.49,2.049,1.518,2.087
	c0.194,0.266,0.566,0.321,0.832,0.129c0.266-0.194,0.323-0.566,0.129-0.832c-0.023-0.032-0.451-0.617-1.178-1.618l12.88-9.497
	c0.818,0.516,3.001,1.932,4.948,3.544C367.531,320.858,370.276,324.031,371.165,325.079z M380.728,288.585
	c-0.02,0.328,0.231,0.61,0.56,0.629c1.608,0.099,4.606-1.763,7.747-3.735c1.641-1.029,3.189-2.001,4.324-2.533
	c1.313-0.612,2.146-0.323,2.369-0.221c0.143,0.066,0.23,0.136,0.281,0.18c-1.061,0.318-2.278,1.506-3.825,3.015
	c-0.384,0.375-0.796,0.776-1.239,1.199c-2.997,2.862-4.775,3.425-4.793,3.431c-0.313,0.093-0.494,0.421-0.403,0.736
	c0.091,0.315,0.422,0.499,0.737,0.407c0.081-0.023,2.034-0.612,5.281-3.712c0.446-0.426,0.861-0.831,1.248-1.208
	c2.37-2.312,3.32-3.132,3.926-2.546c0.609,0.592-2.073,4.239-3.362,5.992c-1.416,1.927-2.755,3.746-3.082,4.92
	c-0.089,0.317,0.097,0.645,0.413,0.733c0.317,0.09,0.646-0.097,0.733-0.413c0.27-0.965,1.604-2.78,2.895-4.535
	c0.742-1.008,1.453-1.975,2.048-2.87c0.172,0.108,0.354,0.273,0.434,0.507c0.143,0.897-1.867,7.561-3.772,10.284
	c-1.929,2.756-8.747,8.323-8.815,8.378c-0.036,0.03-0.069,0.064-0.098,0.102c-0.088,0.115-5.581,7.352-12.447,16.763
	c-1.06-1.243-3.626-4.173-5.614-5.82c-1.758-1.456-3.659-2.729-4.68-3.386l13.854-10.216c0.146-0.108,0.235-0.278,0.241-0.461
	c0.004-0.114,0.363-11.447,1.117-13.914c0.908-2.975,6.06-5.979,10.679-7.41c1.999-0.619,3.788-0.909,5.044-0.857
	c-1.154,0.579-2.602,1.488-4.127,2.445c-2.529,1.588-5.667,3.557-6.974,3.557c-0.023,0-0.047,0-0.07-0.002
	C381.067,288.013,380.748,288.256,380.728,288.585z M272.204,255.884c0.126-0.303,0.475-0.447,0.779-0.32
	c0.025,0.01,2.518,1.048,5.283,1.795c2.692,0.728,4.88,0.555,4.9,0.553c0.326-0.035,0.616,0.215,0.644,0.542
	c0.028,0.328-0.214,0.616-0.542,0.644c-0.032,0.002-0.31,0.025-0.773,0.025c-0.928,0-2.601-0.091-4.54-0.615
	c-2.844-0.769-5.327-1.803-5.431-1.846C272.22,256.536,272.078,256.188,272.204,255.884z M257.999,290.763
	c-3.424-3.826-5.97-11.028-3.938-18.492c3.029-11.129,16.82-13.437,16.959-13.458c0.198-0.03,0.38,0.103,0.412,0.299
	c0.031,0.196-0.103,0.38-0.299,0.412c-0.135,0.021-13.472,2.261-16.378,12.937c-1.961,7.203,0.486,14.141,3.78,17.822
	c1.585,1.772,3.271,2.664,4.628,2.454c1.606-0.251,2.707-0.832,3.271-1.727c0.681-1.082,0.434-2.406,0.226-3.099
	c-0.057-0.19,0.051-0.391,0.241-0.448c0.191-0.058,0.391,0.051,0.448,0.241c0.243,0.811,0.527,2.367-0.306,3.689
	c-0.68,1.079-1.947,1.77-3.768,2.054c-0.165,0.026-0.333,0.039-0.504,0.039C261.279,293.486,259.57,292.518,257.999,290.763z
	 M267.712,269.391c-1.368,5.883,3.581,11.478,3.631,11.534c0.133,0.148,0.121,0.375-0.027,0.508
	c-0.069,0.062-0.155,0.092-0.241,0.092c-0.099,0-0.196-0.04-0.268-0.119c-0.215-0.239-5.251-5.925-3.797-12.178
	c1.455-6.254,8.216-8.995,8.503-9.108c0.186-0.072,0.394,0.017,0.467,0.202c0.073,0.185-0.017,0.394-0.202,0.467
	C275.712,260.815,269.081,263.509,267.712,269.391z M284.612,460.489c0.042,0.194-0.081,0.386-0.275,0.428
	c-0.026,0.006-0.052,0.009-0.077,0.009c-0.166,0-0.314-0.115-0.351-0.284c-0.028-0.13-2.938-13.132-11.467-21.241
	c-8.712-8.285-9.372-15.5-9.396-15.803c-0.016-0.198,0.132-0.371,0.33-0.387c0.201-0.013,0.372,0.132,0.388,0.33
	c0.006,0.071,0.679,7.26,9.174,15.338C281.631,447.144,284.583,460.357,284.612,460.489z M307.736,435.082
	c0.071,0.186-0.021,0.394-0.207,0.465c-0.056,0.021-5.698,2.167-11.69,2.31c-0.351,0.009-0.702,0.013-1.053,0.013
	c-5.621,0-11.105-1.008-11.164-1.019c-0.195-0.036-0.324-0.224-0.288-0.419c0.036-0.196,0.222-0.329,0.42-0.288
	c0.061,0.012,6.182,1.126,12.067,0.994c5.864-0.141,11.395-2.241,11.45-2.263C307.454,434.802,307.666,434.897,307.736,435.082z
	 M302.546,442.139c0,0.199-0.161,0.359-0.359,0.359c-0.062,0-6.174-0.015-11.02-1.297c-4.816-1.274-7.998-2.427-8.029-2.438
	c-0.187-0.067-0.283-0.274-0.215-0.461c0.068-0.188,0.275-0.284,0.461-0.215c0.031,0.011,3.185,1.153,7.968,2.419
	c4.754,1.258,10.775,1.273,10.835,1.273C302.386,441.779,302.546,441.941,302.546,442.139z M408.354,183.322
	c16.191-10.698,19.551-27.261,19.583-27.427c0.125-0.65,0.751-1.075,1.405-0.951c0.65,0.125,1.076,0.755,0.95,1.406
	c-0.139,0.718-3.591,17.725-20.616,28.974c-13.446,8.884-29.999,9.876-36.721,9.876c-1.748,0-2.831-0.067-3.021-0.08
	c-0.661-0.045-1.16-0.617-1.116-1.278c0.044-0.662,0.623-1.169,1.277-1.117C370.315,192.74,392.101,194.06,408.354,183.322z
	 M188.061,301.995c-0.041,0.662-0.604,1.173-1.271,1.124c-0.139,0.001-14.51-0.558-34.504,18.276
	c-16.454,15.501-34.908,17.271-42.471,17.271c-2.027,0-3.271-0.127-3.485-0.151c-0.659-0.073-1.132-0.666-1.06-1.324
	c0.073-0.657,0.663-1.13,1.324-1.061c0.238,0.022,24.019,2.386,44.046-16.48c20.836-19.629,35.67-18.973,36.296-18.925
	C187.598,300.765,188.102,301.334,188.061,301.995z M193.425,275.768c0.105,0.654-0.339,1.269-0.993,1.375
	c-0.2,0.033-20.259,3.568-42.216,30.38c-15.386,18.788-26.84,22.007-32.881,22.007c-2.951,0-4.61-0.768-4.805-0.864
	c-0.595-0.292-0.839-1.012-0.547-1.605c0.292-0.592,1.005-0.837,1.598-0.552c0.187,0.086,13.284,5.741,34.778-20.505
	c22.59-27.587,42.842-31.094,43.693-31.23C192.702,274.667,193.32,275.114,193.425,275.768z M288.918,187.601
	c-0.195-0.633,0.161-1.305,0.794-1.5c2.003-0.616,4.691-1.068,4.805-1.087c0.657-0.107,1.272,0.333,1.381,0.986
	c0.109,0.654-0.333,1.272-0.986,1.381c-0.026,0.004-2.646,0.445-4.495,1.014c-0.117,0.036-0.236,0.053-0.353,0.053
	C289.552,188.448,289.077,188.117,288.918,187.601z M211.01,274.147c-0.047,0.662-0.635,1.15-1.283,1.111
	c-2.678-0.193-6.746,0.214-9.177,0.456l-0.572,0.057c-0.04,0.004-0.08,0.006-0.119,0.006c-0.61,0-1.132-0.463-1.193-1.083
	c-0.064-0.659,0.417-1.247,1.077-1.312l0.568-0.056c2.507-0.25,6.702-0.671,9.587-0.461
	C210.56,272.911,211.057,273.485,211.01,274.147z M345.413,184.961c25.884,6.688,49.547-7.226,49.783-7.367
	c0.569-0.34,1.305-0.156,1.646,0.413c0.34,0.568,0.156,1.305-0.412,1.646c-0.197,0.118-16.158,9.521-36.421,9.521
	c-4.87,0-9.988-0.543-15.196-1.889c-26.072-6.737-43.576-1.565-43.749-1.514c-0.642,0.194-1.306-0.165-1.498-0.797
	c-0.193-0.634,0.163-1.304,0.797-1.498C301.101,183.251,318.695,178.056,345.413,184.961z"></path>
<path id="color_x5F_3" fill="#f5a623" d="M55.595,503.636c0,0,0.041-0.023,0.099-0.056c-0.001,0.019-0.011,0.036-0.011,0.055v0
	L55.595,503.636z M403.466,442.142l8.268,5.987l0.406-6.307C407.072,441.742,403.466,442.142,403.466,442.142z M231.854,477.991
	c-0.9,0.45,1.5-1.65,4.2-5.1c2.7-3.45,3.75-11.4,3.75-11.4s-1.2,1.05-6,3.3c-4.8,2.25-17.4-4.05-17.4-4.05s6.75-1.8,7.5-1.8
	s-2.7-1.05-10.35-1.95c-7.65-0.9-13.349,1.35-13.349,1.35s2.4-2.55,5.55-6.6c3.15-4.05,2.7-13.5,2.7-13.5s-1.35,2.85-6.9,7.5
	c-5.55,4.65-13.35,2.7-13.35,2.7l8.7-6.3c0,0-4.05-0.45-9.6-0.3c-5.55,0.15-16.65,7.35-16.65,7.35s0.15-2.25,0.3-7.8
	c0.15-5.55-2.4-14.4-2.4-14.4s-0.6,5.55-3,8.85c-2.4,3.3-7.8,3.9-7.8,3.9l5.4-6.15c0,0-4.05,0.6-7.8,3.3
	c-3.75,2.7-8.85,10.65-8.85,10.65s-0.6-2.4-1.5-5.85c-0.9-3.45-6.9-9.6-6.9-9.6s0.6,1.5,0.3,8.25c-0.3,6.75-5.7,6.3-5.7,6.3
	l1.35-7.65c0,0-3.9,3-7.05,10.35c-1.158,2.701-1.646,5.747-1.802,8.556l-2.488-5.721c0,0,0.214,1.492,0,4.901
	c-0.213,3.409-7.554,7.247-7.554,7.247l3.293-4.69c0,0-3.196,0.213-8.523,4.049c-5.327,3.836-4.153,7.99-4.153,7.99
	s-0.853-0.426-5.008-2.344c-4.155-1.918-9.908-1.917-9.908-1.917s0.533,0.213,2.77,1.811c2.237,1.598,4.049,7.458,4.049,7.458
	s-0.959-1.385-5.966-4.475c-0.664-0.41-1.329-0.748-1.985-1.034c-4.288-1.868-8.137-1.31-8.137-1.31s2.921,3.227,2.731,6.183
	c-0.19,2.957-2.625,4.577-2.731,5.217c-0.107,0.64-0.213-4.794-0.213-4.794s-1.172,0.533-2.983,3.09
	c-1.811,2.557-0.533,8.417-0.533,8.417s-0.213,0.106-2.664-0.746c-2.451-0.852-8.204-1.385-5.114-0.107
	c3.09,1.278,5.114,4.901,5.114,4.901s-1.279-0.959-6.225-1.32c-4.946-0.361-0.186,2.889-0.593,5.049
	c-0.408,2.159-6.819-0.639-7.458,1.492c-0.639,2.131,4.688,2.131,1.918,2.983c-1.508,0.464-3.517,1.432-5.038,2.219h190.858
	l0.134-25.687C242.603,476.28,232.611,477.613,231.854,477.991z M398.816,445.742c-5.55-4.65-6.9-7.5-6.9-7.5s-0.45,9.45,2.7,13.5
	c3.15,4.05,5.55,6.6,5.55,6.6s-5.7-2.25-13.349-1.35c-7.65,0.9-11.1,1.95-10.35,1.95s7.5,1.8,7.5,1.8s-12.6,6.3-17.4,4.05
	c-4.8-2.25-6-3.3-6-3.3s1.05,7.95,3.75,11.4c2.7,3.45,5.1,5.55,4.2,5.1c-0.9-0.45-14.85-2.25-19.95-0.75c-5.1,1.5-6.9,2.7-6.9,2.7
	s5.55,1.5,6.45,1.8c0.9,0.3-9.45,6.15-16.2,4.2c-2.191-0.633-3.854-1.122-5.11-1.496c0.23,1.673,0.45,3.274,0.658,4.793
	c1.036,1.455,1.98,2.751,2.411,3.267c0.132,0.056,0.218,0.118,0.241,0.186c0.04,0.12-0.054,0.038-0.241-0.186
	c-0.346-0.149-1.063-0.254-2.007-0.322c0.661,4.826,1.16,8.491,1.402,10.262h78.969l3.47-53.909
	C409.981,448.864,403.577,449.732,398.816,445.742z M441.619,434.964c-2.449-1.081-4.403-1.372-4.403-1.372l4.504,5.13
	L441.619,434.964z M537.531,500.227c-2.771-0.852,2.557-0.852,1.918-2.983c-0.639-2.131-7.051,0.668-7.458-1.492
	c-0.407-2.16,4.353-5.409-0.593-5.048c-4.947,0.361-6.225,1.319-6.225,1.319s2.024-3.622,5.114-4.901
	c1.749-0.724,0.663-0.867-1.052-0.7c-1.315,0.128-2.999,0.437-4.062,0.806c-2.451,0.852-2.664,0.746-2.664,0.746
	s1.279-5.86-0.533-8.417c-1.811-2.557-2.983-3.09-2.983-3.09s-0.106,5.434-0.213,4.794c-0.107-0.64-2.541-2.26-2.731-5.217
	c-0.19-2.957,2.731-6.184,2.731-6.184s-5.114-0.746-10.122,2.344c-5.007,3.09-5.966,4.475-5.966,4.475s1.812-5.86,4.049-7.458
	c2.237-1.598,2.77-1.811,2.77-1.811s-5.753-0.001-9.908,1.917c-4.155,1.918-5.008,2.344-5.008,2.344s1.174-4.155-4.153-7.99
	c-5.327-3.836-8.523-4.048-8.523-4.048l3.293,4.69c0,0-7.341-3.837-7.554-7.247c-0.214-3.409,0-4.901,0-4.901l-2.488,5.721
	c-0.156-2.809-0.644-5.855-1.802-8.556c-3.15-7.35-7.05-10.35-7.05-10.35l1.35,7.65c0,0-5.4,0.45-5.7-6.3
	c-0.3-6.75,0.3-8.25,0.3-8.25s-6,6.15-6.9,9.6c-0.345,1.321-0.644,2.483-0.884,3.421l1.543,57.333h85.455
	c0.653,0,1.181,0.527,1.188,1.178l2.106,0.013C544.775,503.636,540.301,501.079,537.531,500.227z M434.816,435.842
	c-2.4-3.3-3-8.85-3-8.85s-2.55,8.85-2.4,14.4c0.15,5.55,0.3,7.8,0.3,7.8s-2.9-1.88-6.476-3.739l-3.669,56.993h23.864l-1.691-62.847
	C440.117,439.277,436.62,438.322,434.816,435.842z M286.454,497.641l7.028-2.237l-0.07-0.277c-0.41-0.428-1.787-1.345-6.358-2.136
	c-1.839-0.318-4.038-0.552-6.229-0.702l-1.498,10.156h15.929l-0.656-2.605L286.454,497.641z M333.284,343.432
	c5.605,5.466,9.665,9.385,13.959,8.994c0.267-0.026,0.537-0.076,0.808-0.137c0.226-1.461,0.625-6.235-2.752-10.987
	c-4.05-5.7-44.026-34.95-46.276-35.4c-2.25-0.45,2.25,11.25,4.5,18.15c2.25,6.9,3.376,15.299,3.751,20.624
	c0.263,3.728,1.534,6.453,2.273,7.755c0.942-14.367,3.645-23.852,4.239-25.795c-6.066-5.629-10.849-9.998-10.941-10.083
	c-0.243-0.222-0.26-0.599-0.038-0.841c0.222-0.244,0.598-0.26,0.841-0.038c0.095,0.086,5.012,4.579,11.202,10.324
	c0.015,0.013,0.029,0.026,0.043,0.04c5.729,5.316,12.538,11.696,17.622,16.645L333.284,343.432z M241.68,340.216
	c0.19-4.731,0.346-9.538,0.471-14.153c-1.198,2.156-2.575,3.313-5.694,4.842c-0.295,0.148-0.652,0.023-0.797-0.272
	c-0.145-0.295-0.022-0.651,0.272-0.796c3.684-1.807,4.65-2.826,6.295-6.723c0.364-14.683,0.43-26.74,0.432-27.004
	c0.001-0.261,0.173-0.476,0.408-0.555l0.078-4.391c0,0-3.075,2.776-4.725,11.926c-1.65,9.15-9.113,26.7-6.375,30
	C234.322,335.837,239.874,339.171,241.68,340.216z M289.594,269.147c1.551,1.753,1.764,5.481,1.151,9.048
	c0.049,0.009,0.099,0.013,0.146,0.036c0.008,0.003,0.586,0.26,1.778,0.511c0.056-4.601-0.07-9.934-1.3-12.253
	c-1.581-2.98-1.306-7.51-1.145-9.118c-0.931-0.227-1.977-0.653-3.039-1.441c-0.363-0.27-0.708-0.621-1.041-1.003
	c0.36,2.334-0.836,4.007-0.836,4.007S286.309,265.433,289.594,269.147z M292.571,285.313c-0.023-1.22,0.041-3.159,0.081-5.36
	c-1.186-0.233-1.878-0.485-2.138-0.591c-0.794,3.534-2.369,6.667-4.205,7.211c-3.857,1.143-9.57,0.571-15.569,5.142
	c-2.047,1.56-4.594,3.136-7.237,4.03c0,0-0.002,0.002-0.002,0.002s1.47,0.966,7.245-0.534c5.775-1.5,4.95-3.675,11.325-4.275
	C288.445,290.338,292.646,289.213,292.571,285.313z"></path>
<path id="color_x5F_4" fill="#07a0c3" d="M441.721,438.722l0.024,0.876c-1.627-0.322-5.124-1.276-6.928-3.756
	c-2.4-3.3-3-8.85-3-8.85s-2.55,8.85-2.4,14.4c0.15,5.55,0.3,7.8,0.3,7.8s-2.9-1.88-6.476-3.739l1.323-20.554h16.785l0.271,10.065
	c-2.449-1.081-4.403-1.372-4.403-1.372L441.721,438.722z M293.413,495.127l-8.203-32.565l-4.385,29.728
	c2.191,0.15,4.39,0.383,6.229,0.702C291.625,493.782,293.003,494.699,293.413,495.127z M375.922,386.683h0.344l-0.249-18.74h-0.44
	L375.922,386.683z M453.109,394.079l0.492,18.303h0.198v-18.236h-0.429C453.276,394.146,453.189,394.118,453.109,394.079z
	 M410.557,394.14v18.242h0.029h0.43v-18.236h-0.43C410.576,394.146,410.567,394.14,410.557,394.14z M386.679,367.943l-3.519,18.74
	h3.334c0.329,0,0.596,0.267,0.596,0.596v24.9c0,0.072-0.018,0.139-0.041,0.203h10.483V393.18v-0.654v-2.88
	c0-0.578,0.389-0.967,0.966-0.967h11.093c0.577,0,0.966,0.389,0.966,0.967v2.88v0.435c0.01-0.001,0.019-0.006,0.029-0.006
	c0.354,0,0.43-0.076,0.43-0.429v-3.621c0-0.329,0.267-0.596,0.596-0.596c0.249,0,0.462,0.153,0.551,0.37h3.399l0.995-15.46h-12.021
	c-0.329,0-0.596-0.267-0.596-0.596v-4.681H386.679z M363.871,424.71c-0.112-0.12-0.17-0.281-0.159-0.445l0.724-11.325
	c0.02-0.313,0.279-0.558,0.594-0.558h3.36c-0.023-0.064-0.041-0.131-0.041-0.203v-24.9c0-0.329,0.267-0.596,0.596-0.596h3.927
	l-1.042-18.74h-2.424c-0.164,0-0.321-0.068-0.435-0.188c-0.112-0.12-0.17-0.281-0.159-0.445l2.59-40.531
	c-3.737,5.145-7.782,10.806-11.531,16.241c-4.792,6.949-8.651,10.216-12.513,10.592c-1.214,0.118-2.39-0.052-3.562-0.462
	c-0.839,1.797-4.071,7.627-12.239,11.646c-5.454,2.684-11.65,3.272-16.036,3.272c-2.304,0-4.09-0.161-5.025-0.268
	c0.567,18.361,3.851,29.152,3.888,29.269c0.087,0.278-0.041,0.579-0.302,0.709c-0.005,0.002-0.029,0.014-0.066,0.032
	c0.433,2.68,2.317,14.361,4.555,28.534c1.625,10.29,5.574,38.746,8.234,58.103c1.256,0.374,2.918,0.863,5.11,1.496
	c6.75,1.95,17.1-3.9,16.2-4.2c-0.9-0.3-6.45-1.8-6.45-1.8s1.8-1.2,6.9-2.7c5.1-1.5,19.05,0.3,19.95,0.75c0.9,0.45-1.5-1.65-4.2-5.1
	c-2.7-3.45-3.75-11.4-3.75-11.4s1.2,1.05,6,3.3c4.8,2.25,17.4-4.05,17.4-4.05s-6.75-1.8-7.5-1.8s2.7-1.05,10.35-1.95
	c7.65-0.9,13.349,1.35,13.349,1.35s-2.4-2.55-5.55-6.6c-3.15-4.05-2.7-13.5-2.7-13.5s1.35,2.85,6.9,7.5
	c4.761,3.99,11.165,3.122,12.892,2.795l0.026-0.408l-8.268-5.987c0,0,3.606-0.4,8.674-0.319l1.089-16.924h-48.924
	C364.142,424.899,363.984,424.83,363.871,424.71z M436.421,392.954c0.354,0,0.43-0.076,0.43-0.429v-3.621
	c0-0.329,0.267-0.596,0.596-0.596c0.249,0,0.462,0.153,0.551,0.37h2.376l-0.416-15.46h-12.066l-2.521,39.163h11.052h0.43v-18.236
	h-0.43c-0.329,0-0.596-0.267-0.596-0.596S436.092,392.954,436.421,392.954z M286.454,497.641l8.146,2.2l-1.117-4.436
	L286.454,497.641z M379.606,367.943l-0.446,18.74h1.067l2.804-18.74H379.606z M329.875,492.505c0.187,0.224,0.281,0.306,0.241,0.186
	C330.094,492.623,330.007,492.562,329.875,492.505z M327.868,492.183c0.945,0.068,1.661,0.174,2.007,0.322
	c-0.431-0.516-1.374-1.812-2.411-3.267C327.605,490.26,327.74,491.244,327.868,492.183z M490.109,342.013l-1.621,25.372
	c-0.02,0.313-0.279,0.558-0.594,0.558H462.28v4.681c0,0.329-0.267,0.596-0.596,0.596h-9.137l0.533,19.821
	c0.087-0.05,0.182-0.086,0.29-0.086c0.353,0,0.429-0.076,0.429-0.429v-3.621c0-0.329,0.267-0.596,0.596-0.596
	c0.249,0,0.462,0.153,0.551,0.37h10.731c0.088-0.217,0.302-0.37,0.551-0.37c0.327,0,0.592,0.264,0.596,0.59v0.001v0.001v0.001v0.001
	c0,0.001,0,0.001,0,0.002v3.621c0,0.353,0.076,0.429,0.429,0.429c0.329,0,0.596,0.267,0.596,0.596s-0.267,0.596-0.596,0.596h-0.429
	v18.236h0.429h10.604c0.164,0,0.321,0.068,0.435,0.188c0.112,0.12,0.17,0.281,0.159,0.445l-0.724,11.325
	c-0.02,0.313-0.279,0.558-0.594,0.558h-23.195l0.544,20.214c0.24-0.937,0.539-2.1,0.884-3.421c0.9-3.45,6.9-9.6,6.9-9.6
	s-0.6,1.5-0.3,8.25c0.3,6.75,5.7,6.3,5.7,6.3l-1.35-7.65c0,0,3.9,3,7.05,10.35c1.158,2.702,1.646,5.747,1.802,8.556l2.488-5.721
	c0,0-0.214,1.492,0,4.901c0.213,3.409,7.554,7.247,7.554,7.247l-3.293-4.69c0,0,3.196,0.213,8.523,4.048
	c5.327,3.836,4.153,7.99,4.153,7.99s0.853-0.426,5.008-2.344c4.155-1.918,9.908-1.917,9.908-1.917s-0.533,0.213-2.77,1.811
	c-2.237,1.598-4.049,7.458-4.049,7.458s0.959-1.385,5.966-4.475c5.007-3.09,10.122-2.344,10.122-2.344s-2.921,3.227-2.731,6.184
	c0.19,2.957,2.625,4.577,2.731,5.217c0.107,0.639,0.213-4.794,0.213-4.794s1.172,0.533,2.983,3.09
	c1.811,2.557,0.533,8.417,0.533,8.417s0.213,0.106,2.664-0.746c1.063-0.37,2.747-0.679,4.062-0.806
	c12.47-10.974,24.366-28.015,25.253-53.383C556.106,386.751,526.821,358.288,490.109,342.013z M308.587,284.804
	c-1.298-0.267-2.522-0.518-3.602-0.834c-5.34-1.563-5.774-4.313-5.789-4.423c-0.019-0.163-0.104-0.311-0.234-0.41
	c-0.001-0.001-0.003-0.001-0.004-0.002c0.173-0.905,0.803-3.95,1.917-6.824c0.941-2.426,1.813-3.654,2.207-4.133
	c0.987,0.251,1.994,0.446,2.998,0.586c0.711,0.486,2.251,0.924,4.445,0.919c4.881-0.01,9.029-1.057,8.947-3.519
	c0,0-0.692-1.653-1.931-2.255c-0.219-0.568-0.519-1.153-0.83-1.751c-0.48-0.923-0.977-1.877-1.234-2.87
	c-0.639-2.459-0.551-4.102-0.432-4.895c1.115,0.273,3.382,0.562,4.802-1.074c0.689-0.793,0.969-1.542,0.856-2.292
	c-0.187-1.239-1.43-2.239-3.375-3.451c-2.685-1.673-3.114-2.164-2.511-4.582c0.288-1.152,0.695-1.957,1.055-2.666
	c0.501-0.99,0.934-1.844,0.769-3.099c-0.229-1.739-1.374-6.488-1.621-7.503c1.346-0.618,2.544-1.273,3.5-1.96
	c2.35-1.69,3.369-3.21,3.116-4.646c-0.261-1.481-1.85-2.26-2.606-2.551c-0.669-4.298-10.049-7.24-18.907-8.588
	c-13.684-2.083-30.574-1.381-33.998,3.384c-2.351,3.27-4.904,11.657-3.554,17.356c0.548,2.314,1.669,3.93,3.333,4.801
	c0.084,0.044,0.185,0.082,0.274,0.125c0.008,1.879,0.157,7.437,1.564,11.071c1.714,4.428,3.5,6.928,3.5,6.928
	s-8.213,0.785-14.641,6.356c-3.237,2.805-5.999,6.228-7.382,10.557c-0.056-0.017-0.112-0.035-0.174-0.035c-0.002,0-0.005,0-0.007,0
	c-0.378,0.005-9.304,0.193-13.285,6.976c-4.103,6.99-10.379,48.171-10.645,49.921c-0.634,4.185,4.603,8.392,16.475,13.224
	c-0.509,11.761-1.254,22.754-2.34,28.779c-3.132,17.367-1.209,24.003-1.126,24.276c0.052,0.171,0.177,0.31,0.342,0.377
	c0.008,0.003,0.048,0.02,0.108,0.044c-0.045,2.966-0.068,16.645,2.95,29.973c3.295,14.555,7.17,22.086,7.426,22.572l-0.146,28.09
	c-6.19-0.479-16.182,0.854-16.939,1.233c-0.9,0.45,1.5-1.65,4.2-5.1c2.7-3.45,3.75-11.4,3.75-11.4s-1.2,1.05-6,3.3
	c-4.8,2.25-17.4-4.05-17.4-4.05s6.75-1.8,7.5-1.8s-2.7-1.05-10.35-1.95c-7.65-0.9-13.349,1.35-13.349,1.35s2.4-2.55,5.55-6.6
	c3.15-4.05,2.7-13.5,2.7-13.5s-1.35,2.85-6.9,7.5c-5.55,4.65-13.35,2.7-13.35,2.7l8.7-6.3c0,0-4.05-0.45-9.6-0.3
	c-5.55,0.15-16.65,7.35-16.65,7.35s0.15-2.25,0.3-7.8c0.15-5.55-2.4-14.4-2.4-14.4s-0.6,5.55-3,8.85c-2.4,3.3-7.8,3.9-7.8,3.9
	l5.4-6.15c0,0-4.05,0.6-7.8,3.3c-3.75,2.7-8.85,10.65-8.85,10.65s-0.6-2.4-1.5-5.85c-0.9-3.45-6.9-9.6-6.9-9.6s0.6,1.5,0.3,8.25
	c-0.3,6.75-5.7,6.3-5.7,6.3l1.35-7.65c0,0-3.9,3-7.05,10.35c-1.158,2.701-1.646,5.747-1.802,8.556l-2.488-5.721
	c0,0,0.214,1.492,0,4.901c-0.213,3.409-7.554,7.247-7.554,7.247l3.293-4.69c0,0-3.196,0.213-8.523,4.049
	c-5.327,3.836-4.153,7.99-4.153,7.99s-0.853-0.426-5.008-2.344c-4.155-1.918-9.908-1.917-9.908-1.917s0.533,0.213,2.77,1.811
	c2.237,1.598,4.049,7.458,4.049,7.458s-0.959-1.385-5.966-4.475c-0.664-0.41-1.329-0.748-1.985-1.034
	c0.978-12.956,6.355-26.908,22.251-35.931c36.876-20.931,22.888-62.241-30.518-80.418C28.055,336.648-0.762,217.123,176.829,125.69
	c163.328-84.09,300.723,5.01,284.926,76.101h-22.83l0.953-14.812c0.011-0.164-0.047-0.325-0.159-0.445
	c-0.113-0.12-0.271-0.188-0.435-0.188h-10.141c-0.313,0-0.574,0.244-0.594,0.557l-0.958,14.888h-47.645
	c-0.314,0-0.574,0.244-0.594,0.557l-5.21,81.52l-14.571,2.376c-0.323,1.061-0.199,2.102,0.621,3.114l13.78-2.837l-1.191,18.631
	l-12.593,9.286c-0.002,0.001-0.003,0.002-0.005,0.004l-13.199,9.733c-4.065-5.609-13.755-19.077-19.243-27.531
	C321.822,287.523,314.173,285.951,308.587,284.804z M108.966,237.306c5.207,28.636,49.461,30.805,58.573,5.64
	c9.112-25.165-24.73-43.821-43.821-35.144C104.627,216.479,108.966,237.306,108.966,237.306z M112.367,308.075
	c6.3-17.4-17.099-30.299-30.299-24.3c-13.2,6-10.2,20.4-10.2,20.4C75.467,323.975,106.066,325.475,112.367,308.075z
	 M188.061,301.995c0.041-0.661-0.463-1.23-1.125-1.271c-0.626-0.048-15.459-0.704-36.296,18.925
	c-20.027,18.866-43.808,16.503-44.046,16.48c-0.661-0.069-1.251,0.403-1.324,1.061c-0.072,0.658,0.401,1.251,1.06,1.324
	c0.214,0.024,1.458,0.151,3.485,0.151c7.563,0,26.017-1.77,42.471-17.271c19.994-18.834,34.365-18.275,34.504-18.276
	C187.457,303.168,188.021,302.657,188.061,301.995z M193.425,275.768c-0.105-0.654-0.723-1.102-1.373-0.994
	c-0.851,0.136-21.103,3.643-43.693,31.23c-21.494,26.246-34.591,20.591-34.778,20.505c-0.593-0.285-1.307-0.04-1.598,0.552
	c-0.292,0.594-0.048,1.313,0.547,1.605c0.195,0.097,1.854,0.864,4.805,0.864c6.041,0,17.496-3.219,32.881-22.007
	c21.957-26.812,42.016-30.347,42.216-30.38C193.085,277.037,193.53,276.422,193.425,275.768z M211.01,274.147
	c0.047-0.661-0.45-1.235-1.111-1.283c-2.885-0.209-7.08,0.211-9.587,0.461l-0.568,0.056c-0.66,0.065-1.142,0.652-1.077,1.312
	c0.061,0.62,0.583,1.083,1.193,1.083c0.039,0,0.079-0.002,0.119-0.006l0.572-0.057c2.431-0.242,6.499-0.649,9.177-0.456
	C210.375,275.297,210.962,274.808,211.01,274.147z M190.724,145.076c-15.072,6.851-11.647,23.293-11.647,23.293
	c4.111,22.608,39.049,24.32,46.243,4.453C232.514,152.954,205.796,138.225,190.724,145.076z M408.354,183.322
	c-16.253,10.738-38.038,9.418-38.259,9.404c-0.654-0.052-1.233,0.455-1.277,1.117c-0.044,0.661,0.455,1.233,1.116,1.278
	c0.19,0.013,1.273,0.08,3.021,0.08c6.722,0,23.274-0.993,36.721-9.876c17.025-11.249,20.478-28.255,20.616-28.974
	c0.126-0.651-0.3-1.28-0.95-1.406c-0.654-0.125-1.28,0.301-1.405,0.951C427.904,156.061,424.545,172.624,408.354,183.322z
	 M295.899,186c-0.109-0.653-0.725-1.093-1.381-0.986c-0.113,0.019-2.802,0.471-4.805,1.087c-0.634,0.195-0.989,0.866-0.794,1.5
	c0.159,0.516,0.634,0.848,1.146,0.848c0.117,0,0.236-0.017,0.353-0.053c1.849-0.568,4.469-1.009,4.495-1.014
	C295.566,187.272,296.008,186.654,295.899,186z M327.634,164.813c5.111-14.115-13.871-24.579-24.579-19.712
	c-10.708,4.867-8.275,16.549-8.275,16.549C297.701,177.711,322.523,178.928,327.634,164.813z M344.813,187.284
	c5.208,1.346,10.326,1.889,15.196,1.889c20.263,0,36.224-9.403,36.421-9.521c0.568-0.341,0.752-1.077,0.412-1.646
	c-0.342-0.568-1.077-0.752-1.646-0.413c-0.236,0.142-23.899,14.056-49.783,7.367c-26.718-6.905-44.313-1.709-45.05-1.485
	c-0.634,0.193-0.99,0.864-0.797,1.498c0.192,0.632,0.856,0.991,1.498,0.797C301.237,185.718,318.741,180.547,344.813,187.284z
	 M461.38,306.015c1.5-3.45-2.25-7.8,5.55-8.4c7.8-0.6,18.45,0.9,18.45,0.9l0.6-9.15c0,0-13.05,0.6-20.7,0.6
	c-7.65,0-9.15-0.75-11.85,3.3c-2.7,4.05-10.8,2.1-22.05,0.9c-11.25-1.2-17.85-1.2-13.8,1.5s-1.8,4.05-10.35,3.75
	c-3.574-0.125-8.665,0.195-13.384,0.61c-2.276,2.866-7.939,7.53-8.608,8.078c-0.333,0.439-2.55,3.366-5.771,7.701l-2.687,19.762
	c0,0,7.05-4.5,15.3-9.6c8.25-5.1,12.75-4.5,26.25-2.4s19.5-5.25,7.35-5.55c-12.15-0.3-0.9-10.2,15.45-7.35
	C457.48,313.515,459.88,309.465,461.38,306.015z M412.207,412.382h1.828h8.813v-18.236h-10.641V412.382z M454.991,394.146v18.236
	h10.642v-18.236H454.991z"></path>
<path id="color_x5F_5" fill="#4e4a4a" d="M408.937,394.146h0.429v18.277c-0.133-0.027-0.276-0.041-0.429-0.041h-9.783
	c-0.153,0-0.297,0.014-0.43,0.041v-18.277h0.43H408.937z M482.195,241.776c-4.95,1.05-9.15,2.25-14.55,7.8
	c-5.4,5.55-8.7,4.65-14.55,4.5c-5.85-0.15-7.35-4.05-10.95-3.15c-3.6,0.9-15.298,12-18.373,16.2c-3.075,4.2-7.875,6.9-7.875,6.9h0
	c0,0,8.549,0.751,13.949,0.825c5.4,0.075,9.675,1.125,9.675,1.125l-4.5,0.75c0,0,2.175,2.55,11.625,1.2
	c9.45-1.35,12.45,0.15,22.5,1.2c10.05,1.05,4.95-1.5-0.9-2.4c-5.85-0.9-7.05-3.15,3.6-2.1c10.65,1.05,17.1,0,17.1,0l3.749-37.651
	C492.695,236.977,487.145,240.727,482.195,241.776z M485.345,317.002L485.345,317.002L485.345,317.002L485.345,317.002z
	 M474.581,326.565c-3.45,1.425-4.612,6.525-4.612,6.525s-1.237-2.55-1.2-4.875c0.037-2.325,0.675-5.588,0.675-5.588
	s-2.4,0.75-5.55,3.45c-3.15,2.7-4.65,7.35-4.65,7.35l-3-6.9c0,0,0.15,1.05,0,3.45c-0.15,2.4-5.318,5.102-5.318,5.102l2.318-3.302
	c0,0-2.25,0.15-6,2.85c-3.75,2.7-2.924,5.625-2.924,5.625s-0.6-0.3-3.525-1.65c-2.925-1.35-6.975-1.35-6.975-1.35
	s0.375,0.15,1.95,1.275c1.575,1.125,2.85,5.25,2.85,5.25s-0.675-0.975-4.2-3.15c-3.525-2.175-7.125-1.65-7.125-1.65
	s2.056,2.271,1.923,4.353c-0.134,2.081-1.848,3.222-1.923,3.672c-0.075,0.45-0.15-3.375-0.15-3.375s-0.825,0.375-2.1,2.175
	c-1.275,1.8-0.375,5.925-0.375,5.925s-0.15,0.075-1.875-0.525c-1.725-0.6-5.775-0.975-3.6-0.075c2.175,0.9,3.6,3.45,3.6,3.45
	s-0.9-0.675-4.382-0.929c-3.482-0.254-0.131,2.034-0.418,3.554c-0.287,1.52-4.8-0.45-5.25,1.05c-0.45,1.5,3.3,1.5,1.35,2.1
	c-1.95,0.6-5.1,2.4-5.1,2.4l73.95-0.45l2.4-45.3c-0.001,0.001-1.914,2.963-3.414,5.512
	C480.431,325.065,478.031,325.139,474.581,326.565z M306.171,227.436l11.667-6.75c-0.577-2.938-7.743-5.981-17.896-7.526
	c-4.613-0.702-9.674-1.07-14.425-1.07c-8.758,0-16.471,1.251-18.426,3.972c-2.221,3.09-4.636,11.01-3.362,16.387
	c0.465,1.964,1.382,3.317,2.727,4.021c4.847,2.538,18.142,2.251,27.402-1.909l4.595-2.659
	C300.957,230.04,303.488,228.575,306.171,227.436z M318.969,221.838c-0.202,0.798-0.719,1.576-1.542,2.318v0
	c-1.434,1.292-3.298,1.862-5.659,2.583c-1.361,0.416-2.904,0.887-4.61,1.578c-0.152,0.062-0.304,0.124-0.454,0.188l-7.597,4.395
	c-0.002,0.001-0.004,0.003-0.005,0.004l-0.108,0.078c-0.335,0.245-0.68,0.483-1.035,0.713c5.562-1.233,15.515-3.764,19.865-6.893
	c1.859-1.337,2.797-2.569,2.64-3.471C320.343,222.642,319.592,222.132,318.969,221.838z M317.507,222.254l-5.44,3.147
	c1.916-0.591,3.449-1.125,4.563-2.13C317.008,222.93,317.3,222.59,317.507,222.254z"></path>
<path id="color_x5F_6" fill="#66D895" d="M448.683,394.146v18.236h-7.672h-2.969v-18.236H448.683z M316.27,355.628
	c-2.796,0.059-3.188,1.895-3.238,2.248c0.186,1.198,1.413,1.866,2.515,2.093c1.381,0.29,3.205,0.012,3.946-1.26
	c0.356-0.611,0.708-1.464,0.358-2.059C319.445,355.963,318.12,355.606,316.27,355.628z"></path>
<path id="color_x5F_7" fill="#758082" d="M324.362,347.87c-0.741,1.271-2.565,1.549-3.946,1.26
	c-1.102-0.227-2.329-0.895-2.515-2.093c0.05-0.354,0.442-2.189,3.238-2.247c1.863-0.019,3.176,0.333,3.581,1.021
	C325.07,346.406,324.719,347.259,324.362,347.87z"></path>
</svg>